<svg xmlns="http://www.w3.org/2000/svg" width="8.694" height="15.318" viewBox="0 0 8.694 15.318">
  <path id="facebook-4" d="M5.87,15.318H3.417a.744.744,0,0,1-.743-.743V9.042H1.243A.744.744,0,0,1,.5,8.3V5.928a.744.744,0,0,1,.743-.743H2.674V4A4.042,4.042,0,0,1,3.743,1.1,3.85,3.85,0,0,1,6.582,0L8.452,0a.744.744,0,0,1,.742.743v2.2a.744.744,0,0,1-.743.743H7.192c-.384,0-.482.077-.5.1-.034.039-.075.15-.075.455v.938H8.357a.755.755,0,0,1,.368.093.746.746,0,0,1,.382.65V8.3a.744.744,0,0,1-.743.743H6.613v5.533A.744.744,0,0,1,5.87,15.318Zm-2.3-.9H5.715V8.64a.5.5,0,0,1,.5-.5h2V6.083h-2a.5.5,0,0,1-.5-.5V4.247a1.529,1.529,0,0,1,.3-1.05,1.522,1.522,0,0,1,1.176-.4H8.3V.9L6.581.9A2.835,2.835,0,0,0,3.572,4V5.587a.5.5,0,0,1-.5.5H1.4V8.144H3.076a.5.5,0,0,1,.5.5ZM8.451.9h0Zm0,0" transform="translate(-0.5)" fill="#292929"/>
</svg>
