<svg xmlns="http://www.w3.org/2000/svg" width="15.435" height="15.438" viewBox="0 0 15.435 15.438">
  <g id="instagram-sketched" transform="translate(-0.449)">
    <path id="Path_2" data-name="Path 2" d="M15.845,4.539a5.641,5.641,0,0,0-.359-1.873A3.955,3.955,0,0,0,13.227.407,5.655,5.655,0,0,0,11.354.048C10.528.009,10.266,0,8.17,0S5.811.009,4.988.045A5.643,5.643,0,0,0,3.115.4,3.767,3.767,0,0,0,1.746,1.3a3.8,3.8,0,0,0-.89,1.366A5.656,5.656,0,0,0,.5,4.536C.458,5.362.449,5.624.449,7.72S.458,10.079.494,10.9a5.641,5.641,0,0,0,.359,1.873,3.954,3.954,0,0,0,2.259,2.259,5.656,5.656,0,0,0,1.873.359c.823.036,1.086.045,3.182.045s2.358-.009,3.182-.045a5.64,5.64,0,0,0,1.873-.359,3.949,3.949,0,0,0,2.259-2.259,5.66,5.66,0,0,0,.359-1.873c.036-.823.045-1.086.045-3.182S15.881,5.362,15.845,4.539Zm-1.39,6.3a4.231,4.231,0,0,1-.265,1.432,2.561,2.561,0,0,1-1.466,1.466,4.246,4.246,0,0,1-1.432.265c-.814.036-1.058.045-3.118.045s-2.307-.009-3.118-.045a4.229,4.229,0,0,1-1.432-.265,2.376,2.376,0,0,1-.887-.576,2.4,2.4,0,0,1-.576-.887,4.247,4.247,0,0,1-.265-1.432c-.036-.814-.045-1.059-.045-3.118s.009-2.307.045-3.118a4.229,4.229,0,0,1,.265-1.432,2.346,2.346,0,0,1,.579-.887,2.4,2.4,0,0,1,.887-.576,4.249,4.249,0,0,1,1.432-.265C5.872,1.411,6.116,1.4,8.176,1.4s2.307.009,3.118.045a4.231,4.231,0,0,1,1.432.265,2.374,2.374,0,0,1,.887.576,2.4,2.4,0,0,1,.576.887,4.249,4.249,0,0,1,.265,1.432c.036.814.045,1.058.045,3.118S14.491,10.027,14.454,10.842Zm0,0" fill="#292929"/>
    <path id="Path_3" data-name="Path 3" d="M128.915,124.5a3.966,3.966,0,1,0,3.966,3.966A3.967,3.967,0,0,0,128.915,124.5Zm0,6.538a2.572,2.572,0,1,1,2.572-2.572A2.573,2.573,0,0,1,128.915,131.038Zm0,0" transform="translate(-120.745 -120.745)" fill="#292929"/>
    <path id="Path_4" data-name="Path 4" d="M364.3,89.527a.926.926,0,1,1-.926-.926A.926.926,0,0,1,364.3,89.527Zm0,0" transform="translate(-351.083 -85.93)" fill="#292929"/>
  </g>
</svg>
