<svg xmlns="http://www.w3.org/2000/svg" width="170.44" height="73.71" viewBox="0 0 170.44 73.71"><title>Lustrup-Farmhouse-logo-black</title><g data-name="Layer 1"><path d="M0 51.75h.93v7.37h4.63V60H0zM15.76 56.46c0 2.4-1.37 3.64-3.43 3.64a3.22 3.22 0 0 1-3.42-3.57v-4.78h.93v4.72c0 1.78.94 2.78 2.51 2.78s2.48-.92 2.48-2.72v-4.78h.93zM23 55.42c1.83.4 2.68 1.07 2.68 2.34 0 1.42-1.18 2.33-2.81 2.33a4.79 4.79 0 0 1-3.36-1.31l.57-.68a3.94 3.94 0 0 0 2.82 1.16c1.11 0 1.84-.58 1.84-1.41s-.42-1.21-2.14-1.58c-1.89-.41-2.76-1-2.76-2.38a2.42 2.42 0 0 1 2.7-2.26 4.3 4.3 0 0 1 2.89 1l-.54.72a3.62 3.62 0 0 0-2.37-.89c-1.07 0-1.76.59-1.76 1.34s.46 1.2 2.24 1.62zM32.85 60h-.94v-7.39h-2.76v-.86h6.46v.86h-2.76zM45.06 60l-2.39-3.2h-2.34V60h-.93v-8.25h3.53c1.81 0 3 1 3 2.46a2.42 2.42 0 0 1-2.24 2.41L46.2 60zm-2.2-7.37h-2.53V56h2.52c1.23 0 2.12-.64 2.12-1.71s-.78-1.68-2.11-1.68zM56.75 56.46c0 2.4-1.38 3.64-3.43 3.64a3.22 3.22 0 0 1-3.42-3.57v-4.78h.93v4.72c0 1.78.94 2.78 2.51 2.78s2.48-.92 2.48-2.72v-4.78h.93zM64.15 57.07h-2V60h-.92v-8.25h3.07c1.86 0 3.08 1 3.08 2.62 0 1.79-1.48 2.7-3.23 2.7zm.08-4.46h-2.08v3.62h2c1.36 0 2.25-.73 2.25-1.82s-.84-1.8-2.17-1.8zM82.73 52.61h-5v2.94h4.47v.84h-4.45V60h-.93v-8.25h5.91zM93.52 60h-1l-1-2.18h-4.44l-1 2.18h-1l3.74-8.29h.88zm-4.19-7.21L87.45 57h3.75zM102.92 60l-2.39-3.2h-2.35V60h-.93v-8.25h3.54c1.81 0 3 1 3 2.46a2.42 2.42 0 0 1-2.23 2.41l2.5 3.38zm-2.2-7.37h-2.54V56h2.53c1.23 0 2.11-.64 2.11-1.71s-.77-1.68-2.1-1.68zM111.89 57.72l-3-4.39V60H108v-8.25h.94l3 4.49 3-4.49h.94V60h-.93v-6.69zM121.33 56.27V60h-.93v-8.25h.93v3.66h4.74v-3.66h.93V60h-.93v-3.73zM135.34 60.12a4.26 4.26 0 1 1 4.21-4.27 4.18 4.18 0 0 1-4.21 4.27zm0-7.65a3.23 3.23 0 0 0-3.22 3.38 3.27 3.27 0 0 0 3.24 3.41 3.23 3.23 0 0 0 3.22-3.38 3.27 3.27 0 0 0-3.24-3.41zM150.42 56.46c0 2.4-1.38 3.64-3.43 3.64a3.22 3.22 0 0 1-3.42-3.57v-4.78h.92v4.72c0 1.78.95 2.78 2.52 2.78s2.48-.92 2.48-2.72v-4.78h.93zM157.68 55.42c1.84.4 2.68 1.07 2.68 2.34 0 1.42-1.17 2.33-2.8 2.33a4.79 4.79 0 0 1-3.36-1.31l.57-.68a3.94 3.94 0 0 0 2.82 1.16c1.11 0 1.83-.58 1.83-1.41s-.41-1.21-2.13-1.58c-1.9-.41-2.77-1-2.77-2.38a2.43 2.43 0 0 1 2.71-2.26 4.31 4.31 0 0 1 2.89 1l-.54.72a3.64 3.64 0 0 0-2.38-.89c-1.07 0-1.75.59-1.75 1.34s.43 1.2 2.23 1.62zM170.38 52.6h-5v2.81h4.48v.84h-4.48v2.88h5.07V60h-6v-8.25h5.94zM57.36 73.58h-.65l-.64-1.43h-2.93l-.64 1.43h-.62l2.45-5.43h.57zm-2.75-4.72l-1.23 2.75h2.46z" fill="#222220"/><path d="M57.36 73.63h-.65a.05.05 0 0 1-.05 0L56 72.2h-2.83l-.63 1.4h-.67l2.46-5.43h.57a.05.05 0 0 1 .05 0l2.46 5.43a.05.05 0 0 1-.05.03zm-.62-.1h.54l-2.41-5.33h-.5L52 73.53h.52l.62-1.4h2.93zm-.9-1.87h-2.46l1.24-2.75 1.22 2.75zm-2.39-.1h2.31L54.61 69zM61.73 71.68h-1.31v1.9h-.61v-5.39h2c1.22 0 2 .64 2 1.71s-.93 1.78-2.08 1.78zm.06-2.93h-1.37v2.37h1.34c.89 0 1.48-.48 1.48-1.19s-.58-1.18-1.45-1.18z" fill="#222220"/><path d="M60.42 73.63h-.61v-5.44h2c1.26 0 2.07.69 2.07 1.76a1.93 1.93 0 0 1-2.17 1.83h-1.24v1.85h-.05zm-.56-.1h.51v-1.85a.05.05 0 0 1 .05-.05h1.31c1.53 0 2.07-.93 2.07-1.73 0-1-.75-1.66-2-1.66h-2zm1.9-2.36h-1.34a.05.05 0 0 1-.05 0v-2.42a.05.05 0 0 1 .05 0h1.37c.94 0 1.5.46 1.5 1.23s-.62 1.19-1.53 1.19zm-1.29-.1h1.29c.87 0 1.43-.45 1.43-1.14s-.51-1.13-1.4-1.13h-1.32zM70.84 73.58h-.66l-.63-1.43h-2.94L66 73.58h-.63l2.46-5.43h.57zm-2.75-4.72l-1.24 2.75h2.46z" fill="#222220"/><path d="M70.84 73.63h-.66l-.62-1.4h-2.91L66 73.6h-.63l2.45-5.43h.57l2.46 5.43zm-.63-.1h.55l-2.41-5.33h-.51l-2.41 5.33h.51l.63-1.4h2.94zm-.9-1.87h-2.46L68 68.84l1.23 2.75s.1.07.08.07zm-2.38-.1h2.3L68.09 69zM77 73.58l-1.56-2.1H73.9v2.1h-.61v-5.39h2.32c1.19 0 2 .63 2 1.61a1.59 1.59 0 0 1-1.46 1.58l1.65 2.2zm-1.44-4.83H73.9v2.19h1.66c.81 0 1.38-.42 1.38-1.12s-.5-1.07-1.38-1.07z" fill="#222220"/><path d="M77.75 73.63H77l-1.54-2.08H74v2h-.61-.05v-5.36H75.71c1.21 0 2 .65 2 1.66a1.6 1.6 0 0 1-1.43 1.61l1.61 2.14a.05.05 0 0 1-.14.03zm-.72-.1h.62l-1.59-2.12a1.54 1.54 0 0 0 1.42-1.53c0-1-.75-1.56-1.9-1.56h-2.24v5.29h.51v-2a.05.05 0 0 1 .05 0h1.54zM75.56 71H73.9h-.05v-2.25h1.71c.9 0 1.43.42 1.43 1.12S76.43 71 75.56 71zM74 70.89h1.61c.81 0 1.33-.42 1.33-1.07s-.48-1-1.33-1H74zM82.24 73.58h-.62v-4.83h-1.81v-.56h4.24v.56h-1.81z" fill="#222220"/><path d="M82.24 73.63h-.62a.05.05 0 0 1-.05 0V68.8h-1.76v-.56h4.24v.56h-1.76v4.78l-.05.05zm-.57-.1h.52v-4.78H84v-.46h-4.14v.46h1.76zM89.17 72.1l-2-2.88v4.36h-.6v-5.39h.62l2 2.94 2-2.94h.61v5.39h-.6v-4.37z" fill="#222220"/><path d="M91.74 73.63h-.6v-4.26l-1.88 2.76-1.87-2.75v4.2h-.6v-5.39h.62L89.16 71l1.93-2.88h.66v5.39l-.01.12zm-.55-.1h.5v-5.29h-.54l-1.94 2.92a.06.06 0 0 1-.09 0l-2-2.92h-.54v5.29h.5v-4.31a.07.07 0 0 1 .06 0L89.15 72l1.95-2.85h.05zM98.56 68.74h-3.29v1.84h2.94v.56h-2.94V73h3.33v.55h-3.94v-5.36h3.9z" fill="#222220"/><path d="M98.6 73.63h-3.94v-5.44h3.9V68.79h-3.24v1.74h2.94v.56a.05.05 0 0 1-.05 0h-2.89V73H98.65v.55l-.05.08zm-3.89-.1h3.84v-.45h-3.28v-1.94h2.89v-.46h-2.89v-1.94h3.24v-.45h-3.8zM105.18 68.19h.59v5.39h-.48l-3.48-4.42v4.42h-.6v-5.39h.57l3.4 4.32z" fill="#222220"/><path d="M105.77 73.63h-.48l-3.39-4.31v4.28h-.6v-5.41h.61l3.31 4.21v-4.21h.64v5.39l-.09.05zm-.46-.1h.42v-5.29h-.5v4.27h-.06l-3.38-4.3h-.5v5.29h.5v-4.34h.06zM110.73 73.58h-.61v-4.83h-1.81v-.56h4.23v.56h-1.81z" fill="#222220"/><path d="M110.73 73.63h-.61-.05V68.8h-1.76v-.56h4.23v.56h-1.76v4.78l-.05.05zm-.56-.1h.51v-4.78h1.76v-.46h-4.13v.46h1.76zM116.89 70.59c1.21.26 1.76.7 1.76 1.53a1.63 1.63 0 0 1-1.84 1.54 3.16 3.16 0 0 1-2.21-.87l.38-.44a2.55 2.55 0 0 0 1.85.76c.73 0 1.2-.38 1.2-.92s-.27-.8-1.4-1-1.81-.67-1.81-1.56a1.59 1.59 0 0 1 1.77-1.48 2.82 2.82 0 0 1 1.9.66l-.36.47a2.34 2.34 0 0 0-1.55-.58c-.7 0-1.15.38-1.15.87s.28.77 1.46 1.02z" fill="#222220"/><path d="M116.81 73.71a3.19 3.19 0 0 1-2.24-.88v-.07l.37-.44a2.49 2.49 0 0 0 1.81.75c.69 0 1.15-.35 1.15-.87s-.21-.75-1.36-1-1.85-.61-1.85-1.61a1.64 1.64 0 0 1 1.82-1.53 2.86 2.86 0 0 1 1.93.67.06.06 0 0 1 0 .07l-.36.47a2.31 2.31 0 0 0-1.52-.57c-.65 0-1.1.34-1.1.82s.22.75 1.42 1c1.26.28 1.8.75 1.8 1.58s-.74 1.61-1.87 1.61zm-2.14-.92a3.09 3.09 0 0 0 2.14.82c1.07 0 1.79-.6 1.79-1.49s-.5-1.22-1.72-1.48c-1.12-.24-1.5-.52-1.5-1.11s.49-.92 1.2-.92a2.38 2.38 0 0 1 1.54.56l.3-.39a2.8 2.8 0 0 0-1.83-.62 1.54 1.54 0 0 0-1.72 1.43c0 .82.48 1.23 1.77 1.51 1.08.23 1.44.5 1.44 1.09s-.5 1-1.25 1a2.58 2.58 0 0 1-1.84-.74z" fill="#222220"/><path d="M101.2 16.81c-.07-.45-.19-.89-.27-1.34a3.87 3.87 0 0 0-.13-.59A21.6 21.6 0 0 0 99.55 11a10.73 10.73 0 0 0-1.9-2.72L97.34 8c-.42-.36-.86-1.11-1.29-1.49a2.91 2.91 0 0 0-.33-.26A33.11 33.11 0 0 0 92.42 4a8.72 8.72 0 0 0-1.22-.51c-.53-.18-1.07-.31-1.61-.45a12.83 12.83 0 0 0-2.06-.34l-3.92-.26a3 3 0 0 0-.42 0 1.94 1.94 0 0 0-.39.12 9.21 9.21 0 0 1-1.64.44 9 9 0 0 0-1.42.46l-1.39.51a8.75 8.75 0 0 0-2 1.1c-.21.15-.44.28-.65.43-.37.26-.73.54-1.09.82a6.83 6.83 0 0 0-.58.51 10.16 10.16 0 0 0-.75.72A11.24 11.24 0 0 1 72.1 8.7a.84.84 0 0 0-.35.48.61.61 0 0 1 0 .12c-.12.19-.23.38-.35.56-1.19 1.79-2.44 3.86-2.58 6.06 0 .78.06 1.57 0 2.35a10.15 10.15 0 0 0-.11 2.2 20.79 20.79 0 0 0 1.16 4 15.39 15.39 0 0 0 2.57 4.46 1 1 0 0 1 .24.38 1.47 1.47 0 0 0 .4.77c.33.32.64.66 1 1a13.51 13.51 0 0 0 1.66 1.34 18.71 18.71 0 0 0 1.95 1 9.48 9.48 0 0 0 1 .7 5.89 5.89 0 0 0 1.42.4 8.11 8.11 0 0 1 1.23.24c.31.1.59.26.89.36a5.05 5.05 0 0 0 2.12 0 30.35 30.35 0 0 0 4.46-.54 8.22 8.22 0 0 0 3.51-1.3 1.88 1.88 0 0 1 .58-.34c.27-.07.48 0 .71-.18s.9-1.07 1.13-1.27c.44-.4.48-.18.92-.59a17.61 17.61 0 0 0 2.94-3.45c.18-.28.56-.62.71-.92a15.65 15.65 0 0 0 .67-1.44 26.17 26.17 0 0 0 .75-2.58c.18-.63.33-1.26.45-1.9a10.81 10.81 0 0 0 .02-3.8zm-.61 4.42a6.66 6.66 0 0 1-.3 1 17.4 17.4 0 0 1-.83 2.53A19.05 19.05 0 0 1 98.13 27a19.85 19.85 0 0 1-1.83 2.53 4.83 4.83 0 0 1-.94.86c-.42.29-1.08.49-1.34.95a3.13 3.13 0 0 0-.15.32 2.34 2.34 0 0 1-.87.65c-.39.24-.74.51-1.15.72a13.13 13.13 0 0 1-3.09.93 1.17 1.17 0 0 1-.27 0h-.27a1.66 1.66 0 0 0-.6.15 5.31 5.31 0 0 1-2 .34 2.6 2.6 0 0 0-.79 0 1 1 0 0 1-.73.06 7 7 0 0 0-1.3-.08 5.15 5.15 0 0 1-2.16-.43 1.14 1.14 0 0 0-.39-.14 2.63 2.63 0 0 1-.74-.09 10.68 10.68 0 0 1-2.22-1.1l-.21-.13-.45-.29c-.58-.38-1.16-.77-1.71-1.2a6.14 6.14 0 0 1-1.5-1.28c-.22-.31-.46-.62-.69-.93-.12-.16-.28-.23-.32-.45a2 2 0 0 0-.06-.34 1.12 1.12 0 0 0-.24-.33 13.91 13.91 0 0 1-1.54-2.64 6.35 6.35 0 0 1-.42-1.41c-.15-.5-.22-1-.37-1.52a2.16 2.16 0 0 0-.25-.44 4.6 4.6 0 0 1-.33-2.36c0-.85.06-1.71.06-2.57a6.21 6.21 0 0 1 .24-1.65 4.69 4.69 0 0 0 .33-1.3 3.94 3.94 0 0 1 .75-1.7c.14-.28.17-.59.32-.87a4.88 4.88 0 0 1 .56-.73c.34-.41.56-.91.89-1.33s.51-.59.76-.88.31-.39.49-.56.56-.5.84-.74l1.35-1.14c.19-.16.4-.3.59-.45l.24-.21a5.75 5.75 0 0 1 1.93-.89 20.09 20.09 0 0 0 2.51-.75 10.94 10.94 0 0 1 4.41-.45 17.34 17.34 0 0 1 4.53.62 15.8 15.8 0 0 1 9.28 8.11 17.83 17.83 0 0 1 1.49 7.88 12.62 12.62 0 0 1-.18 1.49z" fill="#222220" data-name="3OFar0"/><path d="M86.08 37.22h-.75c-12.07-.49-19-11.17-19-17.47.12-5.75 2.98-11.51 7.88-15.83C76.94 1.5 80 .54 84.32.69h.28a3.3 3.3 0 0 0 1 0 6.91 6.91 0 0 0 1-.29 4.6 4.6 0 0 1 2-.36c2.91.22 6.07 2.1 9.4 5.59 2.37 2.48 5.33 6.45 6 11.25s-1.48 10.36-5.55 14.73a16.71 16.71 0 0 1-12.37 5.61zM83.42 1.33a12.15 12.15 0 0 0-8.78 3.08c-4.76 4.2-7.53 9.79-7.6 15.33-.07 5.92 6 15.86 18.33 16.8 4.25.33 8.83-1.41 12.54-5.4 3.93-4.24 6-9.68 5.38-14.2s-3.5-8.47-5.81-10.89c-3.21-3.36-6.23-5.18-9-5.38a4.15 4.15 0 0 0-1.71.33 11 11 0 0 1-1.09.32 4.59 4.59 0 0 1-1.11.05h-.28z" fill="#222220"/><path d="M86.92 22.7a3.34 3.34 0 0 0 .06-.77A6.91 6.91 0 0 1 87 21c0-1.46.05-2.8.06-4.36 0-.79.13-1.57.1-2.35.17 0 0-.07.2-.08s.35.05.52 0h1.75c.76 0 1.53 0 2.29-.09h.34a4 4 0 0 1 .6 0l.45.08a5.37 5.37 0 0 0 2.15-.06.45.45 0 0 1 .36 0 .44.44 0 0 1 .14.39c.05 1.32 0 2.65 0 4l-.15 4.71c-2.64.07-5.28.14-7.92 0h-.74s-.28-.1-.23-.54zm8.14.08l-.38-.42a2.69 2.69 0 0 0-.2-.27c-.62-.55-1.22-1.11-1.82-1.69a.39.39 0 0 0-.21-.08h-.79c-.27 0-.74-.06-1.11-.06a9 9 0 0 0-1.37.1 6.6 6.6 0 0 1-1.65-.1c-.24 0-.33.05-.31.27s.06.6.08.9c0 .45.06.91.08 1.31zm-7.3-8.06v.08a6.54 6.54 0 0 1 .86.63 3.14 3.14 0 0 1 .75.65c.2.31.4.77.82.82a7.34 7.34 0 0 0 .81 0 4.25 4.25 0 0 1 .61.08 3 3 0 0 0 .49.13c1.12 0 2.27.06 3.39 0v-2.49c-.27 0-.51.06-.74.07a9.59 9.59 0 0 1-1.42-.1 8 8 0 0 0-2.28.09 7.86 7.86 0 0 1-1.75 0zm2.79 2.75a9 9 0 0 0 .55.72c.54.56 1.1 1.1 1.66 1.64a.62.62 0 0 0 .39.16c.74 0 1.49 0 2.23-.07h.07v-2.45zM87.23 20a22.76 22.76 0 0 1 5 0 7.28 7.28 0 0 0-.58-.72c-.23-.24-.49-.46-.72-.71l-.66-.77a1.1 1.1 0 0 0-.8-.37h-2zm6.25.34l1.85 1.92v-1.91zM87.42 17h2.07l-2.07-2zM86.18 12.72c-.17-.3-.84-.11-1.12-.06-1.77.35-3.59.45-5.38.64-1.17.12-2.34.28-3.5.48a12 12 0 0 0-1.71.31c-.33.1-.2-.1-.37.27a3.58 3.58 0 0 0 0 1.63c0 .71.05 1.41.06 2.12v4.24a2.2 2.2 0 0 0 .1.72.31.31 0 0 0 .06.13.27.27 0 0 0 .23.06 2.34 2.34 0 0 1 .46-.09 4.48 4.48 0 0 1 .73 0c.47.07.92.19 1.39.26h.12c.88.12 1.76.27 2.64.39a22.44 22.44 0 0 0 2.68.38c1 .14 2 .27 3 .39a.53.53 0 0 0 .22 0c0-2 0-4 .11-6 0-1.39.08-2.8.06-4.2v-.91c.04-.13.33-.57.22-.76zm-5.53 7.38a7.31 7.31 0 0 0-2.14-.1v-.1c.3-.27.58-.56.87-.84l1.59-1.53a1.57 1.57 0 0 1 .73-.52c.32-.07 3 .07 3.79 0v2.85a1.34 1.34 0 0 1 0 .49 30.38 30.38 0 0 1-4.84-.25zm-6.08-1.55a2 2 0 0 1 .13-.63 1 1 0 0 0 0-.58l6-.25a5.3 5.3 0 0 1-1 .93l-1.05.98a8.29 8.29 0 0 0-.71.62 1.2 1.2 0 0 1-1 .39l-1.06-.05h-1.24v-.73c0-.24-.07-.45-.07-.68zm10.9-5.12a.22.22 0 0 1 0 .06v3l-3.5.22 3.51-3.26zM75 14.47a16.57 16.57 0 0 1 2.62-.47l1.59-.22.81-.08c.58-.07 1.14-.15 1.72-.21h.8a17.76 17.76 0 0 0 2.73-.38c-.25.23-.45.42-.66.6s-.66.5-1 .77c-.78.7-1.53 1.43-2.34 2.09-.2.16-.6.07-.91.08s-.56 0-.84 0c-1.22 0-2.44 0-3.67.07h-1.16c0-.19 0-.42-.07-.64 0-.46-.09-.91-.1-1.36s.33-.2.48-.25zm-.47 7c0-.35.06-.69.09-1.13a5.29 5.29 0 0 0 .67 0h.2a7 7 0 0 1 .8 0c.13 0 .67.12.76.05l-2.2 1.81a1.23 1.23 0 0 1-.31-.74zm6.12 2.11c-1.26-.16-2.49-.39-3.74-.6a3 3 0 0 0-1.16-.12c-.12 0-.88.07-.87-.14s.27-.21.32-.25l.63-.46c.43-.3.84-.61 1.25-.94s.51-.56.89-.62a7.62 7.62 0 0 1 1.51 0l1.59.06h.14l.13.1a1 1 0 0 0 .67.13 26.25 26.25 0 0 1 3.32 0V24.08l-.8-.1z" fill="#222220"/><path d="M97.54 14.8v.2l-.06 1.88V19.69c0 .16-.08.37 0 .42a7.55 7.55 0 0 1 0 1.16v1.75a.43.43 0 0 1-.07.29.26.26 0 0 1-.29 0 .27.27 0 0 1-.08-.07A.46.46 0 0 1 97 23v-.32-.64-1.26-2c0-1.36 0-2.72.08-4.08 0-.14 0-.4.13-.39.3-.02.33.49.33.49zM72.65 14.44a.31.31 0 0 1 .31.23 39.68 39.68 0 0 1 .04 4.08v4.59c0 .29-.19.1-.28.06l-.11-.08c-.06-.08 0-.18-.05-.27v-.26-.34-1.18a6.5 6.5 0 0 1 0-1.16c.1-.05 0-.33 0-.42v-.47-.95V15a2.35 2.35 0 0 1 0-.37.19.19 0 0 1 .09-.19z" fill="#222220" data-name="CE3v4j"/></g></svg>