<?xml version="1.0" encoding="iso-8859-1"?>
<!-- Generator: Adobe Illustrator 19.0.0, SVG Export Plug-In . SVG Version: 6.00 Build 0)  -->
<svg version="1.1" id="Capa_1" xmlns="http://www.w3.org/2000/svg" xmlns:xlink="http://www.w3.org/1999/xlink" x="0px" y="0px"
	 viewBox="0 0 512 512" style="enable-background:new 0 0 512 512;" xml:space="preserve">
<g>
	<g>
		<path d="M333.611,12.096c-0.299-0.128-0.576-0.235-0.875-0.32C308.501,4.139,282.731,0,256,0
			C140.928,0,43.392,76.331,11.264,181.013c-0.107,0.363-0.192,0.704-0.277,1.067C3.904,205.504,0,230.293,0,256
			c0,66.133,25.429,126.293,66.731,171.776c0.747,1.259,1.707,2.325,2.88,3.179C116.352,480.704,182.507,512,256,512
			c129.749,0,236.992-97.088,253.525-222.379c0.256-0.832,0.341-1.643,0.384-2.496C511.168,276.907,512,266.56,512,256
			C512,141.909,436.928,45.056,333.611,12.096z M256,490.667c-66.411,0-126.357-27.861-169.088-72.363
			c1.643-16.32,5.739-66.005-2.069-90.837C80.981,315.2,72.64,306.837,65.28,299.477c-5.269-5.269-10.261-10.24-12.949-16.021
			c-6.208-13.205-15.211-64.96-20.053-98.176C62.357,90.347,151.253,21.333,256,21.333c17.728,0,34.923,2.133,51.52,5.888
			c-6.315,7.765-11.328,16.448-14.549,23.104c-12.416-4.565-29.845-9.749-39.552-7.339c-16.085,4.011-32.832,24.704-48.747,46.784
			c-2.389,3.307-5.739,10.027-8.277,15.509c-12.011-0.917-24.107,4.501-33.92,15.019c-9.621,10.304-16.939,26.24-11.584,38.571
			c3.285,7.488,10.475,11.797,19.776,11.797c9.771,0,18.944-5.355,28.672-11.051c8.555-4.992,17.408-10.176,24.811-10.283
			c38.549-0.832,58.219,8.875,64.021,17.835c1.579,2.432,2.112,4.821,1.6,7.275c-7.744,1.451-29.696-0.789-44.651-2.304
			c-25.216-2.517-51.285-5.141-66.496-1.131c-18.88,4.971-29.867,17.984-48.896,47.147c-8.533,13.099-6.165,40.427-0.853,52.715
			c3.648,8.469,16.64,23.68,27.883,27.264c9.173,2.88,21.035,1.259,33.6-0.469c9.472-1.344,23.787-3.285,27.925-0.683
			c9.792,6.272,16.384,32.661,16.384,65.6c-0.128,1.771-2.667,6.933-4.16,10.027c-3.904,7.936-7.915,16.171-6.272,24.192
			c6.592,32.448,31.125,51.285,51.285,51.285c0.939,0,1.856-0.043,2.752-0.128c29.483-2.624,77.995-40.597,84.203-72.597
			c1.515-7.872,0.811-19.712,0.043-32.235c-0.704-11.627-1.493-24.811-0.085-31.595s12.565-27.093,20.011-39.296
			c2.667-4.395,1.856-10.048-1.984-13.483c-6.677-6.016-17.237-16.064-19.819-19.648c-2.432-3.392-6.485-11.179-10.517-19.584
			c3.2,1.131,5.717,2.155,6.933,2.901c12.011,7.424,40.768,39.488,50.859,51.2c2.496,2.923,6.336,4.267,10.155,3.52
			c15.872-3.115,17.92-19.477,19.243-30.315c0.491-3.904,1.387-11.136,2.539-12.459c8.704-1.984,19.968,15.637,28.971,29.931
			c6.229,9.899,12.245,19.2,19.029,26.027C471.168,403.456,373.696,490.667,256,490.667z"/>
	</g>
</g>
<g>
</g>
<g>
</g>
<g>
</g>
<g>
</g>
<g>
</g>
<g>
</g>
<g>
</g>
<g>
</g>
<g>
</g>
<g>
</g>
<g>
</g>
<g>
</g>
<g>
</g>
<g>
</g>
<g>
</g>
</svg>
