<svg xmlns="http://www.w3.org/2000/svg" width="512" height="512" viewBox="0 0 512 512">
  <g id="planet-earth" style="isolation: isolate">
    <g id="Group_26" data-name="Group 26">
      <path id="Path_2" data-name="Path 2" d="M333.611,12.1a7.171,7.171,0,0,0-.875-.32A254.88,254.88,0,0,0,256,0C140.928,0,43.392,76.331,11.264,181.013c-.107.363-.192.7-.277,1.067A254.909,254.909,0,0,0,0,256c0,66.133,25.429,126.293,66.731,171.776a10.548,10.548,0,0,0,2.88,3.179C116.352,480.7,182.507,512,256,512c129.749,0,236.992-97.088,253.525-222.379a9.986,9.986,0,0,0,.384-2.5A253.831,253.831,0,0,0,512,256C512,141.909,436.928,45.056,333.611,12.1ZM256,490.667c-66.411,0-126.357-27.861-169.088-72.363,1.643-16.32,5.739-66.005-2.069-90.837-3.862-12.267-12.2-20.63-19.563-27.99-5.269-5.269-10.261-10.24-12.949-16.021-6.208-13.2-15.211-64.96-20.053-98.176C62.357,90.347,151.253,21.333,256,21.333a232.961,232.961,0,0,1,51.52,5.888,122.343,122.343,0,0,0-14.549,23.1c-12.416-4.565-29.845-9.749-39.552-7.339C237.334,47,220.587,67.69,204.672,89.77c-2.389,3.307-5.739,10.027-8.277,15.509-12.011-.917-24.107,4.5-33.92,15.019-9.621,10.3-16.939,26.24-11.584,38.571,3.285,7.488,10.475,11.8,19.776,11.8,9.771,0,18.944-5.355,28.672-11.051,8.555-4.992,17.408-10.176,24.811-10.283,38.549-.832,58.219,8.875,64.021,17.835a9.4,9.4,0,0,1,1.6,7.275c-7.744,1.451-29.7-.789-44.651-2.3-25.216-2.517-51.285-5.141-66.5-1.131-18.88,4.971-29.867,17.984-48.9,47.147-8.533,13.1-6.165,40.427-.853,52.715,3.648,8.469,16.64,23.68,27.883,27.264,9.173,2.88,21.035,1.259,33.6-.469,9.472-1.344,23.787-3.285,27.925-.683,9.792,6.272,16.384,32.661,16.384,65.6-.128,1.771-2.667,6.933-4.16,10.027-3.9,7.936-7.915,16.171-6.272,24.192,6.592,32.448,31.125,51.285,51.285,51.285q1.408,0,2.752-.128c29.483-2.624,77.995-40.6,84.2-72.6,1.515-7.872.811-19.712.043-32.235-.7-11.627-1.493-24.811-.085-31.6s12.565-27.093,20.011-39.3a10.646,10.646,0,0,0-1.984-13.483c-6.677-6.016-17.237-16.064-19.819-19.648-2.432-3.392-6.485-11.179-10.517-19.584a44.14,44.14,0,0,1,6.933,2.9c12.011,7.424,40.768,39.488,50.859,51.2a10.6,10.6,0,0,0,10.155,3.52c15.872-3.115,17.92-19.477,19.243-30.315.491-3.9,1.387-11.136,2.539-12.459,8.7-1.984,19.968,15.637,28.971,29.931,6.229,9.9,12.245,19.2,19.029,26.027C471.168,403.456,373.7,490.667,256,490.667Z" fill="#fff"/>
    </g>
  </g>
</svg>
